<?xml version="1.0" encoding="utf-8"?>
<!DOCTYPE svg PUBLIC "-//W3C//DTD SVG 1.1//EN" "http://www.w3.org/Graphics/SVG/1.1/DTD/svg11.dtd">
<svg version="1.1" id="Layer_1" xmlns="http://www.w3.org/2000/svg" xmlns:xlink="http://www.w3.org/1999/xlink" x="0px" y="0px"
	 viewBox="0 0 193.9 193.9" enable-background="new 0 0 193.9 193.9" xml:space="preserve">
<g>
	<g>
		<path fill="#FFFFFF" d="M97,193.9c-53.5,0-97-43.5-97-97C0,43.5,43.5,0,97,0c53.5,0,97,43.5,97,97
			C193.9,150.4,150.4,193.9,97,193.9z M97,19.2c-42.9,0-77.7,34.9-77.7,77.7s34.9,77.7,77.7,77.7s77.7-34.9,77.7-77.7
			S139.8,19.2,97,19.2z"/>
	</g>
	<g>
		<path fill="#FFFFFF" d="M148.1,106.6H45.8c-5.3,0-9.6-4.3-9.6-9.6c0-5.3,4.3-9.6,9.6-9.6h102.3c5.3,0,9.6,4.3,9.6,9.6
			C157.7,102.3,153.4,106.6,148.1,106.6z"/>
	</g>
	<g>
		<path fill="#FFFFFF" d="M148.1,75.2h-41.5c-5.3,0-9.6-4.3-9.6-9.6s4.3-9.6,9.6-9.6h41.5c5.3,0,9.6,4.3,9.6,9.6
			S153.4,75.2,148.1,75.2z"/>
	</g>
	<g>
		<path fill="#FFFFFF" d="M87.3,137.8H45.8c-5.3,0-9.6-4.3-9.6-9.6c0-5.3,4.3-9.6,9.6-9.6h41.5c5.3,0,9.6,4.3,9.6,9.6
			C97,133.5,92.7,137.8,87.3,137.8z"/>
	</g>
</g>
</svg>
