<?xml version="1.0" encoding="UTF-8" standalone="no"?>
<svg width="81px" height="65px" viewBox="0 0 81 65" version="1.1" xmlns="http://www.w3.org/2000/svg" xmlns:xlink="http://www.w3.org/1999/xlink" xmlns:sketch="http://www.bohemiancoding.com/sketch/ns">
    <!-- Generator: Sketch 3.3.3 (12072) - http://www.bohemiancoding.com/sketch -->
    <title>Logo</title>
    <desc>Created with Sketch.</desc>
    <defs>
        <linearGradient x1="50%" y1="100%" x2="50%" y2="0%" id="linearGradient-1">
            <stop stop-color="#F5A17B" offset="0%"></stop>
            <stop stop-color="#9D81AE" offset="50.3388074%"></stop>
            <stop stop-color="#242D6E" offset="100%"></stop>
        </linearGradient>
    </defs>
    <g id="Page-1" stroke="none" stroke-width="1" fill="none" fill-rule="evenodd" sketch:type="MSPage">
        <g id="Logo" sketch:type="MSLayerGroup">
            <path d="M50.5,0.597090244 L55,0.597090244 L30.5,49.4029098 L26,49.4029098 L50.5,0.597090244 Z" id="Slice" fill="url(#linearGradient-1)" sketch:type="MSShapeGroup"></path>
            <path d="M4.10072735,60.0249999 L4.10072735,59.2489999 L0.100727346,59.2489999 L0.100727346,60.0249999 L1.66872735,60.0249999 L1.66872735,64.9449999 L2.53272735,64.9449999 L2.53272735,60.0249999 L4.10072735,60.0249999 Z M9.63381825,64.9449999 L9.63381825,59.2489999 L8.76981825,59.2489999 L8.76981825,61.6809999 L6.45781825,61.6809999 L6.45781825,59.2489999 L5.59381825,59.2489999 L5.59381825,64.9449999 L6.45781825,64.9449999 L6.45781825,62.4569999 L8.76981825,62.4569999 L8.76981825,64.9449999 L9.63381825,64.9449999 Z M15.2709091,64.9449999 L15.2709091,64.1689999 L12.4949091,64.1689999 L12.4949091,62.4569999 L14.8629091,62.4569999 L14.8629091,61.6889999 L12.4949091,61.6889999 L12.4949091,60.0249999 L15.2709091,60.0249999 L15.2709091,59.2489999 L11.6309091,59.2489999 L11.6309091,64.9449999 L15.2709091,64.9449999 Z M23.1210909,59.2489999 L22.2090909,59.2489999 L20.8970909,63.3929999 L19.5850909,59.2489999 L18.6890909,59.2489999 L20.5610909,64.9449999 L21.2330909,64.9449999 L23.1210909,59.2489999 Z M25.2781818,64.9449999 L25.2781818,59.2489999 L24.4141818,59.2489999 L24.4141818,64.9449999 L25.2781818,64.9449999 Z M31.2992727,63.3369999 C31.2992727,62.6169999 30.8832727,62.1929999 30.4432727,62.0169999 C30.8272727,61.8649999 31.2112727,61.4249999 31.2112727,60.8089999 C31.2112727,59.8489999 30.5472727,59.2489999 29.4912727,59.2489999 L27.2752727,59.2489999 L27.2752727,64.9449999 L29.5792727,64.9449999 C30.5872727,64.9449999 31.2992727,64.3849999 31.2992727,63.3369999 L31.2992727,63.3369999 Z M30.4352727,63.2969999 C30.4352727,63.8009999 30.0992727,64.1689999 29.4992727,64.1689999 L28.1392727,64.1689999 L28.1392727,62.4329999 L29.4992727,62.4329999 C30.0992727,62.4329999 30.4352727,62.7929999 30.4352727,63.2969999 L30.4352727,63.2969999 Z M30.3472727,60.8409999 C30.3472727,61.3689999 29.9712727,61.6569999 29.4192727,61.6569999 L28.1392727,61.6569999 L28.1392727,60.0249999 L29.4192727,60.0249999 C29.9712727,60.0249999 30.3472727,60.3129999 30.3472727,60.8409999 L30.3472727,60.8409999 Z M36.7283636,64.9449999 L36.7283636,64.1689999 L33.9523636,64.1689999 L33.9523636,62.4569999 L36.3203636,62.4569999 L36.3203636,61.6889999 L33.9523636,61.6889999 L33.9523636,60.0249999 L36.7283636,60.0249999 L36.7283636,59.2489999 L33.0883636,59.2489999 L33.0883636,64.9449999 L36.7283636,64.9449999 Z M44.4105455,63.3209999 C44.4105455,62.8249999 44.2505455,62.4329999 43.9465455,62.1529999 C43.6985455,61.9289999 43.4105455,61.8089999 42.8905455,61.7289999 L42.2105455,61.6249999 C41.8985455,61.5769999 41.7305455,61.4969999 41.5865455,61.3689999 C41.4345455,61.2409999 41.3785455,61.0489999 41.3785455,60.8409999 C41.3785455,60.3209999 41.7385455,59.9529999 42.4105455,59.9529999 C42.8985455,59.9529999 43.3145455,60.0569999 43.6665455,60.3929999 L44.2105455,59.8489999 C43.7225455,59.3929999 43.2025455,59.2009999 42.4425455,59.2009999 C41.2585455,59.2009999 40.5385455,59.8729999 40.5385455,60.8649999 C40.5385455,61.3369999 40.6825455,61.7049999 40.9625455,61.9609999 C41.2105455,62.2009999 41.5705455,62.3449999 42.0345455,62.4169999 L42.7065455,62.5129999 C42.9945455,62.5529999 43.1865455,62.6249999 43.3305455,62.7529999 C43.4905455,62.8889999 43.5545455,63.0889999 43.5545455,63.3449999 C43.5545455,63.9049999 43.1305455,64.2249999 42.3785455,64.2249999 C41.8025455,64.2249999 41.3305455,64.0889999 40.9145455,63.6729999 L40.3465455,64.2409999 C40.8985455,64.7929999 41.5065455,64.9929999 42.3625455,64.9929999 C43.5625455,64.9929999 44.4105455,64.3689999 44.4105455,63.3209999 L44.4105455,63.3209999 Z M49.7196364,64.9449999 L49.7196364,64.1689999 L46.9436364,64.1689999 L46.9436364,62.4569999 L49.3116364,62.4569999 L49.3116364,61.6889999 L46.9436364,61.6889999 L46.9436364,60.0249999 L49.7196364,60.0249999 L49.7196364,59.2489999 L46.0796364,59.2489999 L46.0796364,64.9449999 L49.7196364,64.9449999 Z M54.9727273,63.3209999 C54.9727273,62.8249999 54.8127273,62.4329999 54.5087273,62.1529999 C54.2607273,61.9289999 53.9727273,61.8089999 53.4527273,61.7289999 L52.7727273,61.6249999 C52.4607273,61.5769999 52.2927273,61.4969999 52.1487273,61.3689999 C51.9967273,61.2409999 51.9407273,61.0489999 51.9407273,60.8409999 C51.9407273,60.3209999 52.3007273,59.9529999 52.9727273,59.9529999 C53.4607273,59.9529999 53.8767273,60.0569999 54.2287273,60.3929999 L54.7727273,59.8489999 C54.2847273,59.3929999 53.7647273,59.2009999 53.0047273,59.2009999 C51.8207273,59.2009999 51.1007273,59.8729999 51.1007273,60.8649999 C51.1007273,61.3369999 51.2447273,61.7049999 51.5247273,61.9609999 C51.7727273,62.2009999 52.1327273,62.3449999 52.5967273,62.4169999 L53.2687273,62.5129999 C53.5567273,62.5529999 53.7487273,62.6249999 53.8927273,62.7529999 C54.0527273,62.8889999 54.1167273,63.0889999 54.1167273,63.3449999 C54.1167273,63.9049999 53.6927273,64.2249999 52.9407273,64.2249999 C52.3647273,64.2249999 51.8927273,64.0889999 51.4767273,63.6729999 L50.9087273,64.2409999 C51.4607273,64.7929999 52.0687273,64.9929999 52.9247273,64.9929999 C54.1247273,64.9929999 54.9727273,64.3689999 54.9727273,63.3209999 L54.9727273,63.3209999 Z M60.1618182,63.3209999 C60.1618182,62.8249999 60.0018182,62.4329999 59.6978182,62.1529999 C59.4498182,61.9289999 59.1618182,61.8089999 58.6418182,61.7289999 L57.9618182,61.6249999 C57.6498182,61.5769999 57.4818182,61.4969999 57.3378182,61.3689999 C57.1858182,61.2409999 57.1298182,61.0489999 57.1298182,60.8409999 C57.1298182,60.3209999 57.4898182,59.9529999 58.1618182,59.9529999 C58.6498182,59.9529999 59.0658182,60.0569999 59.4178182,60.3929999 L59.9618182,59.8489999 C59.4738182,59.3929999 58.9538182,59.2009999 58.1938182,59.2009999 C57.0098182,59.2009999 56.2898182,59.8729999 56.2898182,60.8649999 C56.2898182,61.3369999 56.4338182,61.7049999 56.7138182,61.9609999 C56.9618182,62.2009999 57.3218182,62.3449999 57.7858182,62.4169999 L58.4578182,62.5129999 C58.7458182,62.5529999 58.9378182,62.6249999 59.0818182,62.7529999 C59.2418182,62.8889999 59.3058182,63.0889999 59.3058182,63.3449999 C59.3058182,63.9049999 58.8818182,64.2249999 58.1298182,64.2249999 C57.5538182,64.2249999 57.0818182,64.0889999 56.6658182,63.6729999 L56.0978182,64.2409999 C56.6498182,64.7929999 57.2578182,64.9929999 58.1138182,64.9929999 C59.3138182,64.9929999 60.1618182,64.3689999 60.1618182,63.3209999 L60.1618182,63.3209999 Z M62.6949091,64.9449999 L62.6949091,59.2489999 L61.8309091,59.2489999 L61.8309091,64.9449999 L62.6949091,64.9449999 Z M68.58,62.0969999 C68.58,60.9049999 68.564,60.3369999 68.004,59.7769999 C67.636,59.4089999 67.156,59.2009999 66.532,59.2009999 C65.908,59.2009999 65.428,59.4089999 65.06,59.7769999 C64.5,60.3369999 64.484,60.9049999 64.484,62.0969999 C64.484,63.2889999 64.5,63.8569999 65.06,64.4169999 C65.428,64.7849999 65.908,64.9929999 66.532,64.9929999 C67.156,64.9929999 67.636,64.7849999 68.004,64.4169999 C68.564,63.8569999 68.58,63.2889999 68.58,62.0969999 L68.58,62.0969999 Z M67.716,62.0969999 C67.716,63.2249999 67.668,63.5689999 67.38,63.8649999 C67.164,64.0889999 66.876,64.2249999 66.532,64.2249999 C66.188,64.2249999 65.9,64.0889999 65.684,63.8649999 C65.404,63.5609999 65.348,63.2249999 65.348,62.0969999 C65.348,60.9689999 65.404,60.6249999 65.684,60.3209999 C65.9,60.0969999 66.188,59.9689999 66.532,59.9689999 C66.876,59.9689999 67.164,60.0969999 67.38,60.3209999 C67.668,60.6169999 67.716,60.9689999 67.716,62.0969999 L67.716,62.0969999 Z M74.6570909,64.9449999 L74.6570909,59.2489999 L73.7930909,59.2489999 L73.7930909,63.2489999 L71.1610909,59.2489999 L70.3690909,59.2489999 L70.3690909,64.9449999 L71.2330909,64.9449999 L71.2330909,60.9369999 L73.8650909,64.9449999 L74.6570909,64.9449999 Z M80.2141818,63.3209999 C80.2141818,62.8249999 80.0541818,62.4329999 79.7501818,62.1529999 C79.5021818,61.9289999 79.2141818,61.8089999 78.6941818,61.7289999 L78.0141818,61.6249999 C77.7021818,61.5769999 77.5341818,61.4969999 77.3901818,61.3689999 C77.2381818,61.2409999 77.1821818,61.0489999 77.1821818,60.8409999 C77.1821818,60.3209999 77.5421818,59.9529999 78.2141818,59.9529999 C78.7021818,59.9529999 79.1181818,60.0569999 79.4701818,60.3929999 L80.0141818,59.8489999 C79.5261818,59.3929999 79.0061818,59.2009999 78.2461818,59.2009999 C77.0621818,59.2009999 76.3421818,59.8729999 76.3421818,60.8649999 C76.3421818,61.3369999 76.4861818,61.7049999 76.7661818,61.9609999 C77.0141818,62.2009999 77.3741818,62.3449999 77.8381818,62.4169999 L78.5101818,62.5129999 C78.7981818,62.5529999 78.9901818,62.6249999 79.1341818,62.7529999 C79.2941818,62.8889999 79.3581818,63.0889999 79.3581818,63.3449999 C79.3581818,63.9049999 78.9341818,64.2249999 78.1821818,64.2249999 C77.6061818,64.2249999 77.1341818,64.0889999 76.7181818,63.6729999 L76.1501818,64.2409999 C76.7021818,64.7929999 77.3101818,64.9929999 78.1661818,64.9929999 C79.3661818,64.9929999 80.2141818,64.3689999 80.2141818,63.3209999 L80.2141818,63.3209999 Z" id="THE-VIBE-SESSIONS" fill="#393E3E" sketch:type="MSShapeGroup"></path>
        </g>
    </g>
</svg>