<?xml version="1.0" encoding="utf-8"?>
<!-- Generator: Adobe Illustrator 19.0.0, SVG Export Plug-In . SVG Version: 6.00 Build 0)  -->
<!DOCTYPE svg PUBLIC "-//W3C//DTD SVG 1.1//EN" "http://www.w3.org/Graphics/SVG/1.1/DTD/svg11.dtd">
<svg version="1.1" id="Layer_1" xmlns="http://www.w3.org/2000/svg" xmlns:xlink="http://www.w3.org/1999/xlink" x="0px" y="0px"
	 viewBox="0 0 297.3 104.7" style="enable-background:new 0 0 297.3 104.7;" xml:space="preserve">
<style type="text/css">
	.st0{fill:#010101;}
</style>
<g>
	<g>
		<path class="st0" d="M99.9,19.7c0-0.1-0.1-0.2-0.1-0.3c0-0.4,0.3-0.7,0.7-0.7c0.3,0,0.6,0.2,0.7,0.5l1.8,5.3l1.7-5.3
			c0.1-0.3,0.3-0.5,0.7-0.5h0.1c0.3,0,0.6,0.2,0.7,0.5l1.7,5.3l1.8-5.3c0.1-0.3,0.3-0.5,0.7-0.5c0.4,0,0.7,0.3,0.7,0.6
			c0,0.1,0,0.2-0.1,0.3l-2.3,6.4c-0.1,0.3-0.4,0.6-0.7,0.6h-0.1c-0.3,0-0.6-0.2-0.7-0.6l-1.7-5l-1.7,5c-0.1,0.4-0.4,0.6-0.7,0.6
			h-0.1c-0.3,0-0.6-0.2-0.7-0.6L99.9,19.7z"/>
		<path class="st0" d="M113.8,25.9v-6.3c0-0.4,0.3-0.7,0.7-0.7h4.5c0.3,0,0.6,0.3,0.6,0.6c0,0.3-0.3,0.6-0.6,0.6h-3.8v2h3.3
			c0.3,0,0.6,0.3,0.6,0.6c0,0.3-0.3,0.6-0.6,0.6h-3.3v2.1h3.9c0.3,0,0.6,0.3,0.6,0.6c0,0.3-0.3,0.6-0.6,0.6h-4.5
			C114.1,26.5,113.8,26.2,113.8,25.9z"/>
		<path class="st0" d="M122.4,19.4c0-0.4,0.3-0.7,0.7-0.7c0.4,0,0.7,0.3,0.7,0.7v5.9h3.5c0.3,0,0.6,0.3,0.6,0.6
			c0,0.3-0.3,0.6-0.6,0.6h-4.2c-0.4,0-0.7-0.3-0.7-0.7V19.4z"/>
		<path class="st0" d="M130.6,19.4c0-0.4,0.3-0.7,0.7-0.7c0.4,0,0.7,0.3,0.7,0.7v5.9h3.5c0.3,0,0.6,0.3,0.6,0.6
			c0,0.3-0.3,0.6-0.6,0.6h-4.2c-0.4,0-0.7-0.3-0.7-0.7V19.4z"/>
		<path class="st0" d="M138.5,25.7c-0.2-0.1-0.3-0.3-0.3-0.5c0-0.4,0.3-0.6,0.6-0.6c0.2,0,0.3,0.1,0.4,0.1c0.6,0.5,1.3,0.8,2.2,0.8
			c0.8,0,1.4-0.4,1.4-1v0c0-0.6-0.3-0.8-1.7-1.2c-1.6-0.4-2.6-0.9-2.6-2.3v0c0-1.3,1.1-2.2,2.6-2.2c1,0,1.7,0.3,2.4,0.7
			c0.2,0.1,0.3,0.3,0.3,0.5c0,0.4-0.3,0.6-0.6,0.6c-0.1,0-0.2,0-0.4-0.1c-0.6-0.4-1.2-0.6-1.8-0.6c-0.8,0-1.3,0.4-1.3,0.9v0
			c0,0.6,0.4,0.9,1.8,1.2c1.6,0.4,2.5,1,2.5,2.3v0c0,1.4-1.1,2.3-2.8,2.3C140.4,26.6,139.4,26.3,138.5,25.7z"/>
		<path class="st0" d="M151.7,19.5c0-0.4,0.3-0.7,0.7-0.7h4.5c0.3,0,0.6,0.3,0.6,0.6c0,0.3-0.3,0.6-0.6,0.6H153v2.1h3.3
			c0.3,0,0.6,0.3,0.6,0.6c0,0.3-0.3,0.6-0.6,0.6H153v2.5c0,0.4-0.3,0.7-0.7,0.7c-0.4,0-0.7-0.3-0.7-0.7V19.5z"/>
		<path class="st0" d="M159,25.7l2.9-6.4c0.2-0.3,0.4-0.5,0.8-0.5h0.1c0.4,0,0.6,0.2,0.8,0.5l2.9,6.4c0.1,0.1,0.1,0.2,0.1,0.3
			c0,0.4-0.3,0.6-0.6,0.6c-0.3,0-0.5-0.2-0.7-0.5l-0.6-1.4h-3.7l-0.6,1.5c-0.1,0.3-0.3,0.4-0.6,0.4c-0.4,0-0.6-0.3-0.6-0.6
			C158.9,25.9,159,25.8,159,25.7z M164,23.5l-1.4-3.1l-1.4,3.1H164z"/>
		<path class="st0" d="M169.3,19.5c0-0.4,0.3-0.7,0.7-0.7h2.8c1,0,1.7,0.3,2.2,0.8c0.4,0.4,0.6,1,0.6,1.7v0c0,1.2-0.7,2-1.7,2.3
			l1.5,1.9c0.1,0.2,0.2,0.3,0.2,0.5c0,0.4-0.3,0.6-0.6,0.6c-0.3,0-0.5-0.1-0.7-0.4l-1.9-2.4h-1.7v2.1c0,0.4-0.3,0.7-0.7,0.7
			c-0.4,0-0.7-0.3-0.7-0.7V19.5z M172.6,22.6c1,0,1.6-0.5,1.6-1.3v0c0-0.8-0.6-1.3-1.6-1.3h-2v2.6H172.6z"/>
		<path class="st0" d="M178.2,22.7L178.2,22.7c0-2.2,1.7-4,4-4c1.2,0,1.9,0.3,2.6,0.8c0.1,0.1,0.3,0.3,0.3,0.6
			c0,0.4-0.3,0.7-0.7,0.7c-0.2,0-0.3-0.1-0.4-0.2c-0.5-0.4-1-0.6-1.9-0.6c-1.4,0-2.5,1.2-2.5,2.7v0c0,1.6,1,2.8,2.6,2.8
			c0.7,0,1.4-0.2,1.9-0.6v-1.4h-1.5c-0.3,0-0.6-0.3-0.6-0.6s0.3-0.6,0.6-0.6h2.1c0.4,0,0.7,0.3,0.7,0.7V25c0,0.4-0.2,0.7-0.5,0.9
			c-0.7,0.4-1.6,0.8-2.7,0.8C179.8,26.7,178.2,24.9,178.2,22.7z"/>
		<path class="st0" d="M188.1,22.7L188.1,22.7c0-2.2,1.7-4,4-4c2.4,0,4,1.8,4,4v0c0,2.2-1.7,4-4,4S188.1,24.9,188.1,22.7z
			 M194.8,22.7L194.8,22.7c0-1.5-1.1-2.8-2.6-2.8s-2.6,1.2-2.6,2.7v0c0,1.5,1.1,2.7,2.6,2.7S194.8,24.2,194.8,22.7z"/>
	</g>
	<g>
		<g>
			<path class="st0" d="M137.8,83c0.6,0,0.8,0,1.1-0.5c0.1-0.1,0.2,0,0.3,0.1c-0.2,0.4-0.4,0.8-0.5,1.1c-0.4,0-0.9,0-1.5,0l-1.1,0
				c-0.4,0-0.7,0-1,0c-0.1,0-0.1-0.1-0.1-0.2c0.3-0.2,0.7-0.5,1.1-1c0.6-0.6,1.1-1.2,1.1-1.9c0-0.7-0.4-1.1-1-1.1
				c-0.5,0-0.8,0.3-1.1,0.8c-0.1,0-0.2-0.1-0.2-0.2c0.3-0.5,0.9-1.2,1.8-1.2c0.9,0,1.4,0.5,1.4,1.3c0,0.7-0.3,1.1-1,1.8l-0.9,0.9
				c0,0.1,0,0.2,0.2,0.2L137.8,83z"/>
			<path class="st0" d="M146,81.4c0,1.4-1,2.5-2.3,2.4c-1.2,0-2.2-1-2.2-2.5c0-1.5,1-2.5,2.3-2.5S146,80,146,81.4z M142.2,81.4
				c0,1.1,0.6,2,1.5,2c0.9,0,1.5-0.8,1.5-1.9c0-1.1-0.6-2-1.5-2C142.9,79.4,142.3,80.3,142.2,81.4z"/>
			<path class="st0" d="M151,82.6c0,0.8,0,0.9,0.7,0.9l0.4,0c0.1,0.1,0.1,0.2,0,0.3c-0.4,0-1,0-1.5,0c-0.5,0-1.2,0-1.4,0
				c-0.1,0-0.1-0.2,0-0.3l0.3,0c0.8-0.1,0.8-0.2,0.8-0.9l0-2.2c0-0.8,0-0.8-0.8-0.9l-0.2,0c-0.1-0.1-0.1-0.2,0-0.3
				c0.2,0,0.9,0,1.3,0c0.5,0,1.1,0,1.4,0c0.1,0,0.1,0.2,0,0.3l-0.2,0c-0.7,0.1-0.8,0.2-0.8,0.9L151,82.6z"/>
			<path class="st0" d="M156.2,86c-0.1-0.1-0.2-0.2-0.1-0.3c0.6-0.2,1.8-1,1.8-2.2c0-0.7-0.4-1.2-0.9-1.5c-0.5-0.3-0.9-0.6-0.9-1
				c0-0.2,0.1-0.5,0.2-0.9c0.1-0.3,0.3-0.7,0.5-0.7c0.1,0,0.4-0.1,0.7-0.1l0.8-0.1c0.4-0.1,0.5-0.1,0.6-0.2c0.1,0,0.1,0.1,0.1,0.1
				c-0.1,0.2-0.3,0.6-0.6,0.7L157,80c-0.3,0-0.4,0.1-0.4,0.3c-0.1,0.2,0,0.3,0.3,0.5l0.5,0.4c0.7,0.5,1.2,1.1,1.2,2
				C158.6,84.8,157,85.8,156.2,86z"/>
		</g>
		<g>
			<g>
				<path class="st0" d="M220,81.5h-47.2c-0.3,0-0.5-0.2-0.5-0.5s0.2-0.5,0.5-0.5H220c0.3,0,0.5,0.2,0.5,0.5S220.3,81.5,220,81.5z"
					/>
			</g>
			<g>
				<path class="st0" d="M123.8,81.5H76.5c-0.3,0-0.5-0.2-0.5-0.5s0.2-0.5,0.5-0.5h47.2c0.3,0,0.5,0.2,0.5,0.5S124,81.5,123.8,81.5z
					"/>
			</g>
		</g>
	</g>
	<g>
		<g>
			<path class="st0" d="M55.1,65.1h-1.3v-1h0.3v-9.7h1V65.1z M37.1,65.1h-7.5v-4.7h1v3.7h6v0.2h0.5V65.1z M48.7,64.6h-1v-11h1V64.6z
				 M42.5,59H40l-3.3-5.7h-0.7v-3.1l4.5,7.9h1.9V59z M42.4,51l-4.3-8.4l0.9-0.5l3.4,6.7l0.7-1.4l0.9,0.5L42.4,51z M30.6,49.4h-1v-11
				h1V49.4z M55.1,43.5h-1v-4.7h-5.3v-1h6.3V43.5z"/>
		</g>
		<g>
			<path class="st0" d="M82.3,65.1h-3.2l-1.2-3.9h-6.5v-1h7.3l1.2,3.9h2.4V65.1z M63.2,65.1h-1.8l3.6-10l0.9,0.3l-3.1,8.7h0.4V65.1z
				 M83.4,58.2l-3.8-10.3l0.9-0.3l3.8,10.3L83.4,58.2z M75.6,55.8h-4.3l2.6-7.7l0.9,0.3l-2.1,6.4h2.9V55.8z M69.7,45.1l-0.9-0.3
				l2.5-7h4.3v1H72L69.7,45.1z"/>
		</g>
		<g>
			<path class="st0" d="M100.6,65.1h-7.4V62h1v2.1h5.4v-1.5h1V65.1z M107.9,64.9l-5.4-9.6l0.9-0.5l5.4,9.6L107.9,64.9z M113.7,61.9
				l-5.6-9.5l0.9-0.5l5.6,9.5L113.7,61.9z M94.2,51h-1V40h1V51z M99.6,49v-7.8h1v5l2-2.5l0.8,0.6L99.6,49z M111.7,43.7l-0.8-0.6
				l3.6-4.3h-3.2v-1h5.4L111.7,43.7z"/>
		</g>
		<g>
			<path class="st0" d="M141.8,65.1h-8.7v-1h7.7v-2.3h1V65.1z M123.9,64.6h-1v-11h1V64.6z M133.2,59.4h-3.8v-5.6h3.5v1h-2.5v3.6h2.8
				V59.4z M140.1,50h-1v-1h-9v-1h10V50z M141.8,44.6h-5.5v-1h4.5v-5.3h0.3v-0.5h0.7V44.6z M123.9,42.6h-1v-4.8h7.2v1h-6.2V42.6z"/>
		</g>
		<g>
			<path class="st0" d="M157.6,65.1h-7.5v-4.2h1v3.2h5.5v-0.3h1V65.1z M163.5,64.8l-4.7-9.8l0.3-0.1v-0.6h0.5l4.8,10.1L163.5,64.8z
				 M170.2,63.3l-5.1-9.9l0.5-0.2c0.1-0.1,0.2-0.1,0.3-0.2l0.2,0.4l0.1-0.1l4.9,9.4L170.2,63.3z M159.1,49.9h-2.5v-6.3h4.2v1h-3.2
				v4.3h1.5V49.9z M151.1,49.9h-1v-11h1V49.9z M169.1,44.2c-1.1-3.3-4.1-5.3-8.1-5.3v-1c4.4,0,7.7,2.3,9,6L169.1,44.2z"/>
		</g>
		<g>
			<path class="st0" d="M210.6,65.1h-7.4v-1h6.4v-3.6h1V65.1z M193,64.6h-1v-11h1V64.6z M200.7,59.4h-2.2v-9.8h1v8.8h1.2V59.4z
				 M193,42.6h-1v-4.8h7.5v0.7H199v0.3h-6V42.6z"/>
		</g>
		<g>
			<path class="st0" d="M236.1,65.1H233l-1.2-3.9h-6.5v-1h7.3l1.2,3.9h2.4V65.1z M217,65.1h-1.8l3.6-10l0.9,0.3l-3.1,8.7h0.4V65.1z
				 M237.2,58.2l-3.8-10.3l0.9-0.3l3.8,10.3L237.2,58.2z M229.4,55.8h-4.3l2.6-7.7l0.9,0.3l-2.1,6.4h2.9V55.8z M223.6,45.1l-0.9-0.3
				l2.5-7h4.3v1h-3.6L223.6,45.1z"/>
		</g>
		<g>
			<path class="st0" d="M259,65.1h-11v-1h11V65.1z M267.4,59.3l-1-0.3c0.2-0.7,0.3-1.4,0.3-2.2c0-3.4-2-4.6-3-5.3l-0.7-0.4l0.6-0.4
				c0.4-0.3,0.8-0.7,1.2-1l0.7,0.7c-0.2,0.3-0.5,0.5-0.8,0.7c1.2,0.8,2.9,2.4,2.9,5.8C267.7,57.7,267.6,58.6,267.4,59.3z
				 M256.1,59.3h-2.5v-5.6h4.9v1h-3.9v3.6h1.5V59.3z M248.1,54.1h-1v-11h1V54.1z M256.7,48.9h-3.2v-5.3h4.5v1h-3.5v3.3h2.2V48.9z
				 M264.1,40.5c-1.4-1.1-3.3-1.7-5.6-1.7h-4.7v-1h4.7c2.6,0,4.7,0.7,6.3,1.9L264.1,40.5z"/>
		</g>
	</g>
</g>
<g id="XMLID_14_">
</g>
<g id="XMLID_15_">
</g>
<g id="XMLID_16_">
</g>
<g id="XMLID_17_">
</g>
<g id="XMLID_18_">
</g>
<g id="XMLID_19_">
</g>
</svg>
